<svg xmlns="http://www.w3.org/2000/svg" xmlns:xlink="http://www.w3.org/1999/xlink" viewBox="0 0 1190 490"><defs><style>.a{fill:url(#a);}.b{fill:#ff4200;}</style><linearGradient id="a" x1="26" y1="124.44" x2="1176" y2="124.44" gradientUnits="userSpaceOnUse"><stop offset="0" stop-color="#ff4200" stop-opacity="0"/><stop offset="0.8" stop-color="#ff4200"/><stop offset="1" stop-color="#ff4200" stop-opacity="0"/></linearGradient></defs><polygon class="a" points="932.75 101.15 26 55.2 26 193.68 932.75 141.64 1176 161.61 1176 80.88 932.75 101.15"/><path class="b" d="M42.73,470.12H31.5a5.5,5.5,0,0,1-5.5-5.5V368.13a5.5,5.5,0,0,1,5.5-5.5H42.73a5.5,5.5,0,0,1,5.5,5.5v36.09H169.14a5.51,5.51,0,0,1,5.5,5.5v14.06a5.51,5.51,0,0,1-5.5,5.5H48.23v35.34A5.5,5.5,0,0,1,42.73,470.12Z"/><path class="b" d="M169.14,347.85H31.5a5.5,5.5,0,0,1-5.5-5.5V328.29a5.51,5.51,0,0,1,5.5-5.5H85.18V274.66H31.5a5.51,5.51,0,0,1-5.5-5.5V255.1a5.51,5.51,0,0,1,5.5-5.5H169.14a5.51,5.51,0,0,1,5.5,5.5v14.06a5.51,5.51,0,0,1-5.5,5.5H107.41v48.13h61.73a5.51,5.51,0,0,1,5.5,5.5v14.06A5.5,5.5,0,0,1,169.14,347.85Z"/><path class="b" d="M169.14,228.06H31.5a5.51,5.51,0,0,1-5.5-5.5V158.71a5.5,5.5,0,0,1,5.5-5.5H42.73a5.5,5.5,0,0,1,5.5,5.5V203h38V167.35a5.51,5.51,0,0,1,5.5-5.5H103a5.5,5.5,0,0,1,5.5,5.5V203h44V158.71a5.5,5.5,0,0,1,5.5-5.5h11.23a5.5,5.5,0,0,1,5.5,5.5v63.85A5.51,5.51,0,0,1,169.14,228.06Z"/><path d="M778,327c0,11.48,0,132.88,0,132.88a10,10,0,0,1-10,10H716a10,10,0,0,1-10-10V241.86a10,10,0,0,1,10-10h52a10,10,0,0,1,10,10v18.47s-1.28,1.9,3.32-2.94c20.83-21.95,32.9-30.45,77.85-28.92.63,0,1.92.41,1.92,1.45v58.27c0,3.41-4.56,5.7-6.71,5C808.26,277.62,778,314.41,778,327Z"/><path d="M315.35,153.84l-97.33,0a10,10,0,0,0-10,10V459.92a10,10,0,0,0,10,10h53.49a10,10,0,0,0,10-10V349.32c84.67,6.56,143.71-38.64,143.35-107.62C424.78,226.4,426.11,153,315.35,153.84ZM281.66,297.73V207.32c28.92,0,68.87-5.67,68.87,39.2C350.53,305,281.66,297.73,281.66,297.73Z"/><path d="M550.68,227C482.93,227,428,282.26,428,350.43s54.93,123.43,122.68,123.43S673.37,418.6,673.37,350.43,618.44,227,550.68,227Zm0,183.06c-30.95,0-56-26.7-56-59.63s25.1-59.63,56-59.63,56.05,26.7,56.05,59.63S581.64,410.06,550.68,410.06Z"/><path d="M999,153.8H866.57c-11.14,0-13.5,5.23-13.85,6.28a.6.6,0,0,0-.06.19c0,.14-4.33,14.92-6.69,20.69-1.52,3.75-.63,6.34.39,7.85,2.36,3.52,7,3.7,7.9,3.7h51.68c-2.48,41.44-15.53,251.23-15.31,256a34,34,0,0,0,3.8,14.44l.51,1c1.61,3.18,3,5.93,8.29,5.93h59.11c5.29,0,6.68-2.75,8.29-5.93l.51-1a33.81,33.81,0,0,0,3.8-14.44c.22-4.79-12.83-214.58-15.31-256h51.68c.9,0,5.54-.18,7.91-3.7,1-1.51,1.9-4.1.38-7.85-2.36-5.77-6.64-20.55-6.69-20.69a.6.6,0,0,0-.06-.19c-.35-1.05-2.71-6.28-13.81-6.28Z"/><path d="M1011.31,54.14h-157c-.44,0-4.41.08-6.25,2.81-.74,1.11-1.38,3-.18,6,2.39,5.88,6.7,20.75,6.75,20.9l0,.09c.28.83,2.18,4.93,11.92,4.93H999c9.77,0,11.67-4.1,12-4.93l0-.09c0-.15,4.36-15,6.75-20.9,1.2-2.93.56-4.87-.18-6-1.84-2.73-5.81-2.81-6.25-2.81Z"/><path d="M957,96.75H908.45l-47,4.18a1,1,0,0,0-.91,1v38.91a1,1,0,0,0,.91,1l47,4.17h48.67l47-4.17a1,1,0,0,0,.91-1V101.92a1,1,0,0,0-.91-1l-47-4.18Zm-40.16,8.48h31.69v31.69H916.87V105.23Zm48.5,31.65V106.54l31.69,1.19v27.89l-31.69,1.26Zm-97-29.15,31.69-1.19v30.34l-31.69-1.26V107.73Z"/><path d="M932.9,13.08c-2.14,0-2.93,1.9-5.06,7l-9.58,23.42a2,2,0,0,0,1.85,2.75h25.35a2,2,0,0,0,1.85-2.74L938,20.1c-2.16-5.12-3-7-5.1-7Z"/></svg>