<svg xmlns="http://www.w3.org/2000/svg" viewBox="0 0 150 60"><defs><linearGradient id="a" y1="14.5" x2="150" y2="14.5" gradientUnits="userSpaceOnUse"><stop offset="0" stop-color="#fff" stop-opacity=".05"/><stop offset=".8" stop-color="#fff" stop-opacity=".85"/><stop offset="1" stop-color="#fff" stop-opacity=".05"/></linearGradient></defs><path fill="url(#a)" d="M118.27 11.47L0 5.49v18.03l118.27-6.78 31.73 2.6V8.83l-31.73 2.64z"/><path d="M2.18 59.51H.72A.71.71 0 010 58.8V46.23a.71.71 0 01.72-.71h1.46a.71.71 0 01.72.71v4.7h15.77a.72.72 0 01.72.72v1.83a.72.72 0 01-.72.72H2.9v4.6a.71.71 0 01-.72.71zM18.67 43.59H.72a.71.71 0 01-.72-.71v-1.83a.72.72 0 01.72-.72h7v-6.27h-7a.71.71 0 01-.72-.71v-1.84a.71.71 0 01.72-.71h18a.71.71 0 01.72.71v1.84a.71.71 0 01-.72.71h-8.1v6.27h8.05a.72.72 0 01.72.72v1.83a.71.71 0 01-.72.71zM18.67 28H.72a.71.71 0 01-.72-.72V19a.71.71 0 01.72-.71h1.46a.71.71 0 01.72.71v5.77h5v-4.68a.71.71 0 01.71-.72H10a.71.71 0 01.71.72v4.64h5.74V19a.71.71 0 01.72-.71h1.46a.71.71 0 01.72.71v8.32a.71.71 0 01-.68.68z" fill="#fbf9fa"/><path d="M98.09 40.88v17.31a1.31 1.31 0 01-1.31 1.3H90a1.3 1.3 0 01-1.3-1.3v-28.4a1.3 1.3 0 011.3-1.3h6.78a1.31 1.31 0 011.31 1.3v2.41s-.17.24.43-.39c2.72-2.86 4.29-4 10.15-3.76.09 0 .25.05.25.19v7.58a.77.77 0 01-.87.66c-6.05-2.03-9.97 2.76-9.96 4.4z" fill="#241c19"/><path d="M37.74 18.33H25.05a1.31 1.31 0 00-1.31 1.31v38.55a1.31 1.31 0 001.31 1.3h7a1.31 1.31 0 001.31-1.3V43.78c11 .86 18.74-5 18.69-14-.05-2 .14-11.56-14.31-11.45zm-4.39 18.74V25.29c3.77 0 9-.74 9 5.11-.02 7.6-9 6.67-9 6.67z"/><path d="M68.44 27.86a16.07 16.07 0 1016 16.07 16 16 0 00-16-16.07zm0 23.83a7.54 7.54 0 01-7.31-7.76 7.32 7.32 0 1114.62 0 7.55 7.55 0 01-7.31 7.76zM126.92 18.32h-17.28c-1.45 0-1.76.69-1.81.82s-.56 1.94-.87 2.69a1 1 0 000 1 1.29 1.29 0 001 .48h6.74c-.32 5.4-2 32.72-2 33.34a4.44 4.44 0 00.49 1.88l.07.13c.21.42.39.77 1.08.77h7.71c.69 0 .87-.35 1.08-.77 0 0 .05-.08.07-.13a4.45 4.45 0 00.5-1.88c0-.62-1.68-27.94-2-33.34h6.74a1.27 1.27 0 001-.48 1 1 0 000-1c-.31-.75-.87-2.68-.87-2.69-.05-.14-.35-.82-1.8-.82zM128.52 5.35H108a1.05 1.05 0 00-.81.36.8.8 0 000 .78c.32.77.88 2.7.89 2.72 0 .11.28.65 1.55.65h17.28c1.28 0 1.53-.54 1.56-.65s.57-2 .88-2.72a.8.8 0 000-.78 1 1 0 00-.81-.36zM121.44 10.89h-6.34l-6.12.54a.12.12 0 00-.12.13v5.06a.12.12 0 00.12.13l6.12.55h6.35l6.13-.55a.12.12 0 00.11-.13v-5.05a.12.12 0 00-.11-.13l-6.13-.54zM116.2 12h4.13v4.13h-4.13V12zm6.33 4.12v-4l4.13.15V16l-4.13.16zm-12.66-3.8l4.14-.15v4l-4.14-.17v-3.68zM118.29 0c-.28 0-.38.25-.66.91L116.38 4a.26.26 0 000 .24.25.25 0 00.21.12h3.31a.22.22 0 00.21-.12.26.26 0 000-.24L119 .91c-.29-.66-.39-.91-.67-.91z" fill="#241c19"/></svg>